<?xml version="1.0" encoding="utf-8"?>
<!-- Generator: Adobe Illustrator 21.1.0, SVG Export Plug-In . SVG Version: 6.00 Build 0)  -->
<svg version="1.1"
	 id="svg5241" inkscape:export-filename="/Users/anthony/dev/readthedocs/guidelines/assets/logo-wordmark-light.png" inkscape:export-xdpi="90" inkscape:export-ydpi="90" inkscape:version="0.48.5 r10040" sodipodi:docname="logo-wordmark-light.svg" xmlns:cc="http://creativecommons.org/ns#" xmlns:dc="http://purl.org/dc/elements/1.1/" xmlns:inkscape="http://www.inkscape.org/namespaces/inkscape" xmlns:rdf="http://www.w3.org/1999/02/22-rdf-syntax-ns#" xmlns:sodipodi="http://sodipodi.sourceforge.net/DTD/sodipodi-0.dtd" xmlns:svg="http://www.w3.org/2000/svg"
	 xmlns="http://www.w3.org/2000/svg" xmlns:xlink="http://www.w3.org/1999/xlink" x="0px" y="0px" viewBox="0 0 2000 400"
	 style="enable-background:new 0 0 2000 400;" xml:space="preserve">
<style type="text/css">
	.st0{display:none;}
	.st1{display:inline;}
	.st2{fill:#FA13FA;}
	.st3{fill:#FAFAFA;}
</style>
<g id="layer1" transform="translate(0,-652.3622)" inkscape:groupmode="layer" inkscape:label="Layer 1" class="st0">
	<g id="g5310" transform="translate(-7.2877533,-6.3546821e-5)" class="st1">
		
			<g id="g3990" transform="matrix(0.55753644,0,0,0.55753644,62.308135,1038.8762)" inkscape:export-filename="/home/anthony/secure/docs/rtd/assets/rtd-logo-2.png" inkscape:export-xdpi="90" inkscape:export-ydpi="90">
		</g>
		<g id="g3878" transform="matrix(8.4462802,0,0,8.4462802,-93.469267,-7827.1593)">
			<g id="g3857" transform="matrix(0.55753644,0,0,0.55753644,68.308135,1050.1262)">
				<path id="path3929-8" inkscape:connector-curvature="0" class="st2" d="M-67.3-41.6c-0.9,0.1-1.5,0.9-1.4,1.8
					c0.1,0.6,0.5,1.2,1.2,1.3c0,0,3.9,1.3,10.6,1.8c5.4,0.4,11.5-0.4,11.5-0.4c0.9,0,1.6-0.8,1.6-1.7c0-0.9-0.8-1.6-1.7-1.6
					c-0.1,0-0.2,0-0.3,0c0,0-6,0.7-10.8,0.3c-6.4-0.5-9.9-1.7-9.9-1.7C-66.7-41.6-67-41.6-67.3-41.6z M-67.3-49.6
					c-0.9,0.1-1.5,0.9-1.4,1.8c0.1,0.6,0.5,1.2,1.2,1.3c0,0,3.9,1.3,10.6,1.8c5.4,0.4,11.5-0.4,11.5-0.4c0.9,0,1.6-0.8,1.6-1.7
					c0-0.9-0.8-1.6-1.7-1.6c-0.1,0-0.2,0-0.3,0c0,0-6,0.7-10.8,0.3c-6.4-0.5-9.9-1.7-9.9-1.7C-66.7-49.6-67-49.6-67.3-49.6z
					 M-67.3-57.6c-0.9,0.1-1.5,0.9-1.4,1.8c0.1,0.6,0.5,1.2,1.2,1.3c0,0,3.9,1.3,10.6,1.8c5.4,0.4,11.5-0.4,11.5-0.4
					c0.9,0,1.6-0.8,1.6-1.7c0-0.9-0.8-1.6-1.7-1.6c-0.1,0-0.2,0-0.3,0c0,0-6,0.7-10.8,0.3c-6.4-0.5-9.9-1.7-9.9-1.7
					C-66.7-57.6-67-57.6-67.3-57.6z M-67.3-65.6c-0.9,0.1-1.5,0.9-1.4,1.8c0.1,0.6,0.5,1.2,1.2,1.3c0,0,3.9,1.3,10.6,1.8
					c5.4,0.4,11.5-0.4,11.5-0.4c0.9,0,1.6-0.8,1.6-1.7c0-0.9-0.8-1.6-1.7-1.6c-0.1,0-0.2,0-0.3,0c0,0-6,0.7-10.8,0.3
					c-6.4-0.5-9.9-1.7-9.9-1.7C-66.7-65.6-67-65.6-67.3-65.6z M-78.5-74C-86.9-74-90-71.4-90-71.4v62.8c0,0,3.1-2.6,12.9-2.2
					c9.8,0.4,11.9,3.9,24,4.1C-41-6.5-38-8.6-38-8.6l0.2-64c0,0-5.4,1.5-16,1.6c-10.6,0.1-13.1-2.7-22.9-3C-77.4-74-77.9-74-78.5-74
					z M-71.5-69.9c0,0,5.1,1.7,14.5,2.2c8,0.4,15.9-0.8,15.9-0.8v56.9c0,0-4,2.1-14.1,1.4c-7.8-0.6-16.4-3.5-16.4-3.5L-71.5-69.9z
					 M-76.4-68.4c0.9,0,1.6,0.7,1.6,1.6c0,0.9-0.7,1.6-1.6,1.6c0,0-2.6,0-4.2,0.2c-2.7,0.3-4.5,1.2-4.5,1.2
					c-0.8,0.4-1.8,0.1-2.2-0.7c-0.4-0.8-0.1-1.8,0.7-2.2c0,0,0,0,0,0c0,0,2.4-1.3,5.7-1.6C-79-68.4-76.4-68.4-76.4-68.4z
					 M-77.9-60.4c0.9,0,1.6,0,1.6,0c0.9,0.1,1.5,0.9,1.4,1.8c-0.1,0.7-0.7,1.3-1.4,1.4c0,0-2.6,0-4.2,0.2c-2.7,0.3-4.5,1.2-4.5,1.2
					c-0.8,0.4-1.8,0.1-2.2-0.7c-0.4-0.8-0.1-1.8,0.7-2.2c0,0,2.4-1.3,5.7-1.6C-80-60.3-78.8-60.4-77.9-60.4z M-76.4-52.4
					c0.9,0,1.6,0.7,1.6,1.6s-0.7,1.6-1.6,1.6c0,0-2.6,0-4.2,0.1c-2.7,0.3-4.5,1.2-4.5,1.2c-0.8,0.4-1.8,0.1-2.2-0.7
					c-0.4-0.8-0.1-1.8,0.7-2.2c0,0,2.4-1.3,5.7-1.6C-79-52.5-76.4-52.4-76.4-52.4z"/>
			</g>
			<g id="text5298">
				<path id="path3068" class="st2" d="M63.4,1038.9v-2.6l1.1-0.1c0.6-0.1,0.9-0.4,0.9-0.9v-14.9l-1.8-0.1v-2.7h8.7
					c2.5,0,4.4,0.5,5.7,1.4c1.3,0.9,2,2.4,2,4.5c0,1.5-0.4,2.6-1.2,3.6c-0.7,0.9-1.6,1.6-2.7,2c0.8,0.3,1.4,0.9,1.8,2l2.3,5l1.8,0.1
					v2.7h-7.9v-2.6l0.9-0.1c0.5-0.1,0.7-0.3,0.7-0.6c0-0.1,0-0.3-0.1-0.4l-1.5-3.2c-0.2-0.5-0.5-0.9-0.8-1.1
					c-0.3-0.2-0.7-0.4-1.2-0.4h-2.9v5.6l2.1,0.1v2.7L63.4,1038.9 M69.3,1027.4h2.8c2.6,0,3.9-1.2,3.9-3.5c0-1.3-0.4-2.2-1.1-2.6
					c-0.7-0.4-1.8-0.6-3.3-0.6h-2.3L69.3,1027.4"/>
				<path id="path3070" class="st2" d="M90.3,1022.3c1.6,0,2.9,0.4,3.8,1.2c0.9,0.8,1.4,1.9,1.4,3.3c0,0.9-0.2,1.8-0.6,2.5
					c-0.4,0.7-0.9,1.3-1.5,1.7c-0.6,0.4-1.3,0.7-2.2,1c-1.4,0.4-3,0.6-4.8,0.6c0.1,1.1,0.4,2,1.1,2.8c0.6,0.7,1.6,1,2.9,1
					c1.3,0,2.6-0.5,4-1.4l1.2,2.6c-0.4,0.4-1.2,0.8-2.2,1.2c-1,0.4-2.2,0.6-3.5,0.6c-2.6,0-4.5-0.7-5.7-2.1c-1.2-1.5-1.8-3.4-1.8-6
					c0-2.5,0.7-4.6,2.1-6.3C85.9,1023.1,87.8,1022.3,90.3,1022.3 M88.8,1029.6c0.8-0.1,1.5-0.5,2.2-0.9c0.7-0.5,1-1.1,1-1.7
					c0-1.3-0.6-2-1.9-2c-1.2,0-2.1,0.5-2.8,1.4c-0.6,0.9-1,2.1-1.1,3.4C87.2,1029.8,88.1,1029.7,88.8,1029.6"/>
				<path id="path3072" class="st2" d="M110.9,1023.4v11.9c0,0.3,0.1,0.6,0.2,0.7c0.1,0.1,0.3,0.2,0.6,0.2l1,0.1v2.6h-5.1v-1.9
					l-0.1,0c-1.1,1.5-2.5,2.3-4.4,2.3c-2.2,0-3.8-0.7-4.8-2.1c-1-1.4-1.6-3.3-1.6-5.7c0-2.9,0.7-5.2,2.1-6.8
					c1.4-1.6,3.5-2.4,6.3-2.4C107,1022.3,108.9,1022.6,110.9,1023.4 M107.2,1033.8v-8.3c-0.6-0.3-1.4-0.4-2.5-0.4
					c-1.4,0-2.5,0.6-3.1,1.7c-0.6,1.2-1,2.7-1,4.6c0,3.5,1.1,5.2,3.3,5.2c0.9,0,1.7-0.3,2.3-0.8
					C106.9,1035.1,107.2,1034.5,107.2,1033.8"/>
				<path id="path3074" class="st2" d="M121.1,1022.3c0.9,0,1.8,0.1,2.6,0.4v-3.2c0-0.5-0.3-0.7-0.8-0.8l-1.4-0.1v-2.5h6v19.5
					c0,0.5,0.3,0.7,0.8,0.7l1.1,0.1v2.6h-5.2v-1.9l-0.1,0c-1,1.6-2.4,2.3-4.4,2.3c-2.4,0-4.1-0.8-5.1-2.4c-0.9-1.5-1.3-3.3-1.3-5.4
					c0-2.8,0.7-5,2-6.7C116.7,1023.1,118.7,1022.3,121.1,1022.3 M123.7,1033.9v-8.3c-0.8-0.3-1.6-0.5-2.4-0.5
					c-1.4,0-2.4,0.6-3.1,1.7c-0.6,1.1-1,2.6-1,4.3c0,3.6,1.2,5.4,3.5,5.4c0.9,0,1.6-0.2,2.2-0.7
					C123.5,1035.2,123.7,1034.6,123.7,1033.9"/>
				<path id="path3076" class="st2" d="M141.9,1036.3c0,0-1.5,0.6-2.3,0.6c-0.8,0-1.1-0.4-1.1-1.4c0-0.4,0.1-1,0.2-1.8l1.2-7.5h3.9
					l0.3-2.1h-3.9l0.7-4.1l-2.8,0.6l-0.6,3.5l-2.8,0.3l-0.3,1.8h2.8l-1.2,7.8c-0.1,0.6-0.2,1.3-0.2,1.8c0,2.2,0.9,3.3,2.8,3.3
					c1.6,0,3.7-1.3,3.7-1.3L141.9,1036.3"/>
				<path id="path3078" class="st2" d="M150.6,1017.3l-5.1,0.1l-0.3,1.5l2.4,0.6l-3.1,19.3h2.7l0.9-5c0,0,2.2-7.7,5.9-7.7
					c1.1,0,1.5,0.8,1.5,1.8c0,0.4-0.1,0.8-0.1,1.2l-1.6,9.7l5.1-0.3l0.3-1.5l-2.4-0.4l1.3-7.8c0.1-0.6,0.1-1.1,0.1-1.7
					c0-2-0.8-3.4-3.1-3.4c-4.3,0-6.5,5.4-6.6,5.7L150.6,1017.3"/>
				<path id="path3080" class="st2" d="M170.7,1035.6c0,0-2.5,1.3-4.6,1.3c-2.1,0-3.1-0.9-3.1-2.9c0-0.4,0-0.8,0.1-1.2
					c5.8,0,9.8-2.2,9.8-5.4c0-2.2-1.8-3.6-4.6-3.6c-4.5,0-8.1,4.6-8.1,10.4c0,3.1,2,5,5,5c3.3,0,6.3-2.1,6.3-2.1L170.7,1035.6
					 M163.4,1030.8c0.7-2.9,2.8-5,4.8-5c1.4,0,2.1,0.6,2.1,1.8C170.3,1029.5,167.3,1030.8,163.4,1030.8"/>
				<path id="path3082" class="st2" d="M177.6,1038.9v-2.6l1.1-0.1c0.6-0.1,0.9-0.4,0.9-0.9v-14.9l-1.8-0.1v-2.7h8.8
					c3.1,0,5.6,0.8,7.3,2.5c1.8,1.7,2.7,4.1,2.7,7.4c0,2-0.3,3.8-0.8,5.3c-0.5,1.5-1.3,2.7-2.2,3.5c-1.8,1.7-4.1,2.6-6.8,2.6
					L177.6,1038.9 M183.5,1020.7v15.1h3.3c1.8,0,3.3-0.7,4.3-2c1-1.3,1.5-3.2,1.5-5.8c0-4.9-2.1-7.4-6.2-7.4H183.5"/>
				<path id="path3084" class="st2" d="M205.6,1036.5c2.3,0,3.5-1.9,3.5-5.6c0-1.9-0.3-3.3-0.8-4.3c-0.5-1-1.4-1.5-2.6-1.5
					c-1.2,0-2.1,0.5-2.7,1.4c-0.6,0.9-0.9,2.2-0.9,3.8c0,3,0.6,4.9,1.7,5.7C204.3,1036.3,204.9,1036.5,205.6,1036.5 M198.3,1030.8
					c0-1.6,0.2-2.9,0.7-4.1c0.5-1.2,1.1-2.1,1.9-2.7c1.5-1.2,3.2-1.7,5-1.7c1.3,0,2.4,0.2,3.2,0.6c0.9,0.4,1.6,0.9,2.1,1.4
					c0.5,0.5,0.9,1.3,1.3,2.4c0.4,1,0.5,2.2,0.5,3.6c0,2.9-0.7,5.2-2.1,6.7c-1.4,1.5-3.3,2.3-5.5,2.3c-2.2,0-4-0.7-5.2-2.1
					C198.9,1035.7,198.3,1033.6,198.3,1030.8"/>
				<path id="path3086" class="st2" d="M218.4,1030.6c0,1.8,0.3,3.2,1,4.2c0.7,1,1.7,1.5,2.9,1.5c1.3,0,2.6-0.5,3.8-1.4l1.4,2.5
					c-1.5,1.2-3.4,1.9-5.7,1.9c-2.3,0-4.1-0.7-5.4-2.1c-1.3-1.5-2-3.6-2-6.4s0.7-4.9,2.2-6.3c1.5-1.4,3.2-2.1,5.1-2.1
					c1.9,0,3.7,0.4,5.3,1.3v4.2l-2.9,0.2v-1.5c0-0.6-0.2-0.9-0.6-1.1c-0.4-0.1-0.8-0.2-1.3-0.2
					C219.7,1025.2,218.4,1027,218.4,1030.6"/>
				<path id="path3088" class="st2" d="M236.7,1025.2c-0.5-0.2-1.1-0.3-1.9-0.3c-0.7,0-1.3,0.2-1.8,0.5c-0.4,0.3-0.6,0.7-0.6,1.2
					c0,0.5,0.1,0.8,0.2,1.1c0.2,0.3,0.4,0.5,0.8,0.7c0.5,0.3,1.2,0.5,1.9,0.7c0.7,0.2,1.3,0.4,1.7,0.5c0.4,0.1,0.8,0.3,1.3,0.6
					c0.6,0.3,1,0.6,1.2,0.9c0.7,0.8,1.1,1.8,1.1,3c0,1.6-0.6,2.9-1.8,3.8c-1.2,0.9-2.6,1.3-4.4,1.3c-2.6,0-4.6-0.3-5.9-1v-4.4
					l2.9-0.2v1.5c0,0.9,0.9,1.4,2.7,1.4c1.8,0,2.7-0.7,2.7-2c0-0.5-0.2-0.9-0.5-1.2c-0.3-0.3-0.6-0.5-0.9-0.6
					c-0.3-0.1-0.7-0.2-1.1-0.3c-0.4-0.1-0.8-0.2-1.2-0.3c-0.4-0.1-0.8-0.2-1.3-0.4c-0.4-0.2-0.9-0.5-1.5-0.8
					c-1.1-0.7-1.6-1.9-1.6-3.5c0-1.7,0.6-2.9,1.8-3.8c1.2-0.9,2.6-1.3,4.4-1.3c1.8,0,3.6,0.4,5.3,1.3v3.8l-2.9,0.2v-1.3
					C237.5,1025.7,237.2,1025.4,236.7,1025.2"/>
			</g>
		</g>
	</g>
</g>
<g>
	<path class="st3" d="M474.4,139.7v-21.9h75v21.9l-19.4,3.7v130l19.4,3.7V299h-75v-21.8l19.4-3.7v-130L474.4,139.7z"/>
	<path class="st3" d="M562.1,277.2l17.4-3.7V190l-19.3-3.7v-21.9h53.1l1.6,19.3c4.5-6.9,10-12.2,16.5-16.1c6.6-3.8,13.9-5.7,22-5.7
		c13.6,0,24.2,4.3,31.9,12.8c7.6,8.5,11.4,21.9,11.4,40.2v58.6l17.4,3.7V299h-69.4v-21.8l15.6-3.7V215c0-9-1.8-15.4-5.5-19.2
		c-3.7-3.8-9.2-5.7-16.5-5.7c-4.8,0-9.1,1-12.9,2.9c-3.8,2-7,4.7-9.6,8.3v72.2l14.7,3.7V299h-68.4V277.2z"/>
	<path class="st3" d="M724.7,230.4c0-20.1,5.6-36.5,16.9-49.3c11.2-12.8,26.8-19.2,46.6-19.2c19.9,0,35.5,6.4,46.7,19.2
		c11.2,12.8,16.9,29.2,16.9,49.4v2.6c0,20.2-5.6,36.7-16.9,49.5c-11.2,12.7-26.7,19.1-46.5,19.1c-20,0-35.6-6.4-46.9-19.1
		c-11.2-12.7-16.9-29.2-16.9-49.5V230.4z M761,233c0,12.3,2.2,22.1,6.5,29.6c4.3,7.4,11.3,11.1,20.9,11.1c9.4,0,16.2-3.7,20.6-11.2
		c4.4-7.5,6.5-17.3,6.5-29.5v-2.6c0-11.9-2.2-21.7-6.6-29.2c-4.4-7.5-11.3-11.3-20.8-11.3s-16.3,3.8-20.7,11.3
		c-4.3,7.5-6.5,17.3-6.5,29.2V233z"/>
	<path class="st3" d="M930.7,273.7c6.5,0,11.7-1.9,15.6-5.7c3.9-3.8,5.8-8.8,5.8-15.1H985l0.4,0.7c0.3,13.6-4.8,25-15.3,34.2
		c-10.5,9.2-23.6,13.8-39.3,13.8c-20.1,0-35.5-6.3-46.4-19c-10.9-12.7-16.3-29-16.3-48.9v-3.7c0-19.8,5.6-36.1,16.7-48.9
		c11.2-12.8,27.1-19.2,47.7-19.2c10.9,0,20.6,1.6,29.2,4.9c8.6,3.2,15.8,7.8,21.5,13.7l0.5,36h-29.5l-6-21c-1.8-1.6-4.1-2.9-6.7-3.9
		c-2.7-1-5.7-1.6-9.1-1.6c-10.3,0-17.5,3.7-21.8,11.2c-4.2,7.5-6.3,17.1-6.3,28.9v3.7c0,12,1.9,21.7,5.8,29.1
		C914.1,270,920.9,273.7,930.7,273.7z"/>
	<path class="st3" d="M999.8,277.2l17.5-3.7v-143l-19.4-3.7v-21.9h55.6v76.7c4.2-6.2,9.4-11.1,15.6-14.5c6.1-3.4,12.9-5.2,20.4-5.2
		c14.1,0,25.2,4.7,33.2,14c8,9.3,12,23.7,12,43.2v54.4l17.4,3.7V299h-69.4v-21.8l15.7-3.7v-54.6c0-10.5-1.8-17.9-5.5-22.2
		s-9.2-6.5-16.5-6.5c-5.1,0-9.5,0.9-13.3,2.7c-3.8,1.8-6.9,4.4-9.5,7.7v72.9l15.7,3.7V299h-69.4V277.2z"/>
	<path class="st3" d="M1162.7,277.2l17.5-3.7V190l-19.4-3.7v-21.9h55.7v109.1l17.4,3.7V299h-71.3V277.2z M1216.5,132.1h-36.3v-27.3
		h36.3V132.1z"/>
	<path class="st3" d="M1393.2,117.8v40.1h-20.9l-1.9-20.8h-40.2v142.7l20.3,3.5V299h-65.1v-15.7l20.3-3.5V137.1h-40.3l-1.7,20.8h-21
		v-40.1H1393.2z"/>
	<path class="st3" d="M1458.1,301.6c-18.7,0-33.7-6.2-44.7-18.7c-11.1-12.5-16.6-28.7-16.6-48.6v-5.5c0-19.2,5.7-35.1,17.1-47.8
		c11.4-12.7,24.9-19.1,40.5-19.1c18.1,0,31.8,5.5,41.1,16.4c9.3,11,14,25.6,14,43.8v15.3h-87.4l-0.4,0.6c0.2,12.9,3.5,23.6,9.8,31.9
		c6.3,8.3,15.1,12.5,26.5,12.5c8.3,0,15.6-1.2,21.8-3.5c6.3-2.4,11.7-5.6,16.2-9.8l9.6,15.9c-4.8,4.6-11.2,8.6-19.1,11.8
		C1478.7,300,1469.2,301.6,1458.1,301.6z M1454.3,181.1c-8.2,0-15.2,3.5-21,10.4c-5.8,6.9-9.4,15.6-10.7,26.1l0.2,0.6h62.1V215
		c0-9.6-2.6-17.7-7.7-24.1C1472.1,184.4,1464.5,181.1,1454.3,181.1z"/>
	<path class="st3" d="M1621.5,299c-0.7-3.6-1.3-6.9-1.7-9.8c-0.4-2.9-0.7-5.8-0.9-8.7c-4.7,6.1-10.6,11.1-17.7,15.1s-14.7,6-22.7,6
		c-14,0-24.7-3.4-32-10.3c-7.3-6.8-11-16.5-11-28.9c0-12.8,5.2-22.6,15.5-29.6c10.3-6.9,24.5-10.4,42.5-10.4h25.3v-15.7
		c0-7.9-2.5-14.1-7.5-18.7c-5-4.6-11.9-6.9-20.8-6.9c-6.1,0-11.6,0.8-16.2,2.4c-4.7,1.6-8.5,3.7-11.4,6.5l-2.6,14.2h-18.9V178
		c6.1-4.9,13.6-8.8,22.3-11.8c8.7-2.9,18.2-4.4,28.4-4.4c15.3,0,27.6,3.9,37.1,11.7c9.5,7.8,14.2,19,14.2,33.5v64.8
		c0,1.7,0,3.4,0.1,5.1c0,1.7,0.1,3.3,0.3,5l10,1.4V299H1621.5z M1582,281c8.1,0,15.6-1.9,22.3-5.8c6.7-3.9,11.5-8.6,14.4-14.1V239
		h-26.1c-10,0-18,2.3-23.8,7c-5.8,4.6-8.8,10.3-8.8,16.9c0,5.9,1.8,10.4,5.5,13.5C1569.1,279.5,1574.6,281,1582,281z"/>
	<path class="st3" d="M1669.1,283.3l20.3-3.5v-96.2l-20.3-3.5v-15.8h42.3l1.6,17.5c4.3-6.4,9.9-11.3,16.7-14.8
		c6.8-3.5,14.7-5.2,23.6-5.2c9,0,16.7,2.1,23.1,6.2c6.4,4.1,11.3,10.4,14.5,18.7c4.2-7.6,9.8-13.7,16.8-18.2
		c7-4.5,15.1-6.7,24.4-6.7c13.8,0,24.6,4.7,32.6,14.1c8,9.4,11.9,23.6,11.9,42.5v61.3l20.3,3.5V299h-65.2v-15.7l20.3-3.5v-61.6
		c0-13.3-2.3-22.7-6.8-28.2c-4.6-5.5-11.3-8.3-20.3-8.3c-8.5,0-15.4,3-20.6,9c-5.2,6-8.2,13.6-9,22.7v66.3l20.3,3.5V299h-65.1v-15.7
		l20.3-3.5v-61.6c0-12.6-2.3-21.8-7-27.7c-4.7-5.8-11.5-8.8-20.3-8.8c-7.5,0-13.6,1.5-18.4,4.6c-4.8,3.1-8.5,7.4-11.1,12.9v80.5
		l20.3,3.5V299h-65.1V283.3z"/>
</g>
<g>
	<g>
		<polygon class="st3" points="373,128.4 128.3,128.4 114.7,101.3 386.6,101.3 		"/>
	</g>
	<g>
		<g>
			<rect x="163.4" y="108.1" class="st3" width="31.7" height="224.3"/>
		</g>
		<rect x="155.5" y="128.4" class="st3" width="47.6" height="13.6"/>
		<rect x="163.4" y="142" class="st3" width="31.7" height="13.6"/>
		<rect x="163.4" y="210" class="st3" width="31.7" height="13.6"/>
	</g>
	<g>
		<path class="st3" d="M386.6,210H114.7v-27.2c90.6,8.6,181.3,8.6,271.9,0V210z"/>
	</g>
	<g>
		<path class="st3" d="M400.1,101.3H101.1L87.5,74.1c108.8,7.2,217.5,7.2,326.3,0L400.1,101.3z"/>
	</g>
	<g>
		<g>
			<rect x="306.1" y="108.1" class="st3" width="31.7" height="224.3"/>
		</g>
		<rect x="298.2" y="128.4" class="st3" width="47.6" height="13.6"/>
		<rect x="306.1" y="142" class="st3" width="31.7" height="13.6"/>
		<rect x="306.1" y="210" class="st3" width="31.7" height="13.6"/>
	</g>
	<rect x="230.2" y="128.4" class="st3" width="40.8" height="81.6"/>
	<rect x="243.8" y="142" class="st3" width="13.6" height="54.4"/>
</g>
</svg>
